<svg width="20" height="20" viewBox="0 0 20 20" fill="none" xmlns="http://www.w3.org/2000/svg">
<path d="M15.4004 12.8499V3.4999C15.4004 2.0499 14.2504 0.899902 12.8004 0.899902H3.50039C2.05039 0.899902 0.900391 2.0499 0.900391 3.4999V12.8499C0.900391 14.2999 2.05039 15.4499 3.50039 15.4499H12.8504C14.2504 15.3999 15.4004 14.2499 15.4004 12.8499ZM17.6004 5.4999V13.5499C17.6004 15.7999 15.7504 17.6499 13.5004 17.6499H5.45039C5.15039 17.6499 5.00039 17.9999 5.20039 18.1999C5.70039 18.7499 6.40039 19.0999 7.25039 19.0999H13.9504C16.8004 19.0999 19.1004 16.7999 19.1004 13.9499V7.2499C19.1004 6.4499 18.7504 5.6999 18.2004 5.1999C17.9504 4.9999 17.6004 5.1999 17.6004 5.4999Z" fill="white"/>
</svg>
